{"title":"Naruto Shippuuden 357 [Hi10 720p] [ENG-SUBBED] [GWC].mp4","uid":9882441,"size":121591386,"categoryP":"video","categoryS":"tv_shows","magnet":"?xt=urn:btih:4c18ee46c94dd239d10dfbccd67d8c343bff73ae&amp;dn=Naruto+Shippuuden+357+%5BHi10+720p%5D+%5BENG-SUBBED%5D+%5BGWC%5D.mp4&amp;tr=udp%3A%2F%2Ftracker.openbittorrent.com%3A80&amp;tr=udp%3A%2F%2Fopen.demonii.com%3A1337&amp;tr=udp%3A%2F%2Ftracker.coppersurfer.tk%3A6969&amp;tr=udp%3A%2F%2Fexodus.desync.com%3A6969","seeders":1,"leechers":0,"uploader":"canc232","files":1,"time":1396563878,"description":"Naruto Shippuuden 357 [Hi10 720p] [ENG-SUBBED] [GWC] \n\n\n###NEW OP &amp; ED THIS WEEK. SO DIDN'T CUT THEM FROM THE EPISODE!###\n\n\nSTORYLINE:\nNaruto Uzumaki, is a loud, hyperactive, adolescent ninja who constantly searches for approval and recognition, as well as to become Hokage, who is acknowledged as the leader and strongest of all ninja in the village.\n\n\nTHUMBNAIL IMAGE : &lt;a href=&quot;\nhttp://img829.imageshack.us/img829/1199/xai8.jpg&quot; rel=&quot;nofollow&quot; target=&quot;_NEW&quot;&gt;\nhttp://img829.imageshack.us/img829/1199/xai8.jpg&lt;/a&gt;\n\n\nMEDIA INFO :\nGeneral \nFormat : MPEG-4 \nFormat profile : Base Media \nFile size : 116 MiB \nDuration : 23mn 9s \nOverall bit rate mode : Variable \nOverall bit rate : 700 Kbps \n\nVideo \nFormat : AVC \nFormat profile : High &lt;a class=&quot;__cf_email__&quot; href=&quot;/cdn-cgi/l/email-protection&quot; data-cfemail=&quot;0f3e3f4f433a213e&quot;&gt;[email&amp;#160;protected]&lt;/a&gt;&lt;script cf-hash='f9e31' type=&quot;text/javascript&quot;&gt;\n/* &lt;![CDATA[ */!function(){try{var t=&quot;currentScript&quot;in document?document.currentScript:function(){for(var t=document.getElementsByTagName(&quot;script&quot;),e=t.length;e--;)if(t[e].getAttribute(&quot;cf-hash&quot;))return t[e]}();if(t&amp;&amp;t.previousSibling){var e,r,n,i,c=t.previousSibling,a=c.getAttribute(&quot;data-cfemail&quot;);if(a){for(e=&quot;&quot;,r=parseInt(a.substr(0,2),16),n=2;a.length-n;n+=2)i=parseInt(a.substr(n,2),16)^r,e+=String.fromCharCode(i);e=document.createTextNode(e),c.parentNode.replaceChild(e,c)}}}catch(u){}}();/* ]]&gt; */&lt;/script&gt; \nFormat settings, CABAC : Yes \nFormat settings, ReFrames : 10 frames  \nDuration : 23mn 9s \nBit rate : 625 Kbps \nMaximum bit rate : 4 565 Kbps \nWidth : 1 280 pixels \nHeight : 720 pixels \nDisplay aspect ratio : 16:9 \nFrame rate mode : Constant \nFrame rate : 23.976 fps \nStream size : 104 MiB (89%) \nTitle : Naruto Shippuuden 357 [Hi10 720p] [ENG-SUBBED] [GWC] \nWriting library : x264 core \n\nAudio \nFormat : AAC \nFormat profile : HE-AAC / LC \nDuration : 23mn 9s \nBit rate mode : Variable \nChannel(s) : 2 channels \nSampling rate : 48.0 KHz / 24.0 KHz \nStream size : 11.9 MiB (10%) \nLanguage : Japanese \n\nText \nFormat : Timed Text \nTitle : [GWC] \nLanguage : English ","torrent":{"xt":"urn:btih:4c18ee46c94dd239d10dfbccd67d8c343bff73ae","amp;dn":"Naruto+Shippuuden+357+%5BHi10+720p%5D+%5BENG-SUBBED%5D+%5BGWC%5D.mp4","amp;tr":["udp%3A%2F%2Ftracker.openbittorrent.com%3A80","udp%3A%2F%2Fopen.demonii.com%3A1337","udp%3A%2F%2Ftracker.coppersurfer.tk%3A6969","udp%3A%2F%2Fexodus.desync.com%3A6969"],"infoHash":"4c18ee46c94dd239d10dfbccd67d8c343bff73ae","infoHashBuffer":{"type":"Buffer","data":[76,24,238,70,201,77,210,57,209,13,251,204,214,125,140,52,59,255,115,174]},"announce":[],"urlList":[]}}